<?xml version="1.0" encoding="UTF-8"?><svg xmlns="http://www.w3.org/2000/svg" xmlns:xlink="http://www.w3.org/1999/xlink" viewBox="0 0 224 224"><defs><linearGradient id="linear-gradient" x1="112.01" y1="227.52" x2="112.01" y2="214.49" gradientUnits="userSpaceOnUse"><stop offset="0" stop-color="#333"/><stop offset=".3" stop-color="#424242"/><stop offset=".34" stop-color="#575757"/><stop offset=".46" stop-color="#979797"/><stop offset=".57" stop-color="#c5c5c5"/><stop offset=".64" stop-color="#e2e2e2"/><stop offset=".69" stop-color="#ededed"/><stop offset=".83" stop-color="#ebebeb"/><stop offset=".89" stop-color="#e4e4e4"/><stop offset=".92" stop-color="#d8d8d8"/><stop offset=".95" stop-color="#c7c7c7"/><stop offset=".98" stop-color="#b1b1b1"/><stop offset="1" stop-color="#979797"/><stop offset="1" stop-color="#969696"/></linearGradient><linearGradient id="linear-gradient-2" x1="112" y1="195.09" x2="112" y2="225.2" gradientUnits="userSpaceOnUse"><stop offset="0" stop-color="#999"/><stop offset=".06" stop-color="#bdbdbd"/><stop offset=".14" stop-color="#ececec"/><stop offset=".17" stop-color="#fff"/><stop offset=".21" stop-color="#f9f9f9"/><stop offset=".26" stop-color="#e9e9e9"/><stop offset=".31" stop-color="#d0d0d0"/><stop offset=".37" stop-color="#acacac"/><stop offset=".42" stop-color="#868686"/><stop offset=".46" stop-color="#7c7c7c"/><stop offset=".54" stop-color="#717171"/><stop offset=".62" stop-color="#6e6e6e"/><stop offset=".87" stop-color="#ededed"/><stop offset=".93" stop-color="#ebebeb"/><stop offset=".95" stop-color="#e4e4e4"/><stop offset=".97" stop-color="#d8d8d8"/><stop offset=".98" stop-color="#c7c7c7"/><stop offset=".99" stop-color="#b1b1b1"/><stop offset="1" stop-color="#979797"/><stop offset="1" stop-color="#969696"/></linearGradient><linearGradient id="linear-gradient-3" x1="112" y1="187.81" x2="112" y2="190.18" gradientUnits="userSpaceOnUse"><stop offset="0" stop-color="gray"/><stop offset=".09" stop-color="#969696"/><stop offset=".21" stop-color="#adadad"/><stop offset=".33" stop-color="#bebebe"/><stop offset=".47" stop-color="#c8c8c8"/><stop offset=".65" stop-color="#ccc"/><stop offset=".74" stop-color="#d1d1d1"/><stop offset=".85" stop-color="#e1e1e1"/><stop offset=".98" stop-color="#fafafa"/><stop offset="1" stop-color="#fff"/></linearGradient><linearGradient id="linear-gradient-4" x1="112" y1="-104.22" x2="112" y2="305.81" gradientUnits="userSpaceOnUse"><stop offset="0" stop-color="#333"/><stop offset=".05" stop-color="#3c3c3c"/><stop offset=".14" stop-color="#565656"/><stop offset=".24" stop-color="#818181"/><stop offset=".37" stop-color="#bcbcbc"/><stop offset=".5" stop-color="#fff"/><stop offset=".57" stop-color="#c8c8c8"/><stop offset=".66" stop-color="#8c8c8c"/><stop offset=".74" stop-color="#5a5a5a"/><stop offset=".82" stop-color="#333"/><stop offset=".89" stop-color="#171717"/><stop offset=".95" stop-color="#060606"/><stop offset="1" stop-color="#000"/></linearGradient><linearGradient id="linear-gradient-5" y1="-126.35" y2="274.47" xlink:href="#linear-gradient-4"/><linearGradient id="linear-gradient-6" x1="4" y1="89" x2="220" y2="89" gradientUnits="userSpaceOnUse"><stop offset="0" stop-color="#333"/><stop offset=".29" stop-color="#292929"/><stop offset=".77" stop-color="#0f0f0f"/><stop offset="1" stop-color="#000"/></linearGradient><linearGradient id="Silver" x1="97.55" y1="92.57" x2="176.54" y2="106.5" gradientUnits="userSpaceOnUse"><stop offset="0" stop-color="#dddad6"/><stop offset="0" stop-color="#d5cfcb"/><stop offset=".06" stop-color="#c6c0be"/><stop offset=".17" stop-color="#9f9a9c"/><stop offset=".26" stop-color="#78747b"/><stop offset=".52" stop-color="#eff0f0"/><stop offset=".58" stop-color="#e0e1e1"/><stop offset=".69" stop-color="#bbbabc"/><stop offset=".83" stop-color="#7f7b80"/><stop offset=".88" stop-color="#6c686d"/><stop offset="1" stop-color="#c6c8c9"/><stop offset="1" stop-color="#96989b"/></linearGradient></defs><g style="isolation:isolate;"><g id="Layer_1"><g><path d="M32.01,219.72v3.03c0,.92,.99,1.25,1.9,1.25H190.1c1.41,0,1.9-.57,1.9-1.25v-3.03H32.01Z" style="fill:url(#linear-gradient);"/><path d="M191.99,219.72c.16-1.82-3.31-3.19-3.31-3.19,0,0-31.84-6.83-40.67-10.47-8.83-3.64-9.14-14.11-9.14-14.11v-13.94h-53.74v13.94s-.31,10.47-9.14,14.11c-8.83,3.64-40.67,10.47-40.67,10.47,0,0-3.47,1.37-3.31,3.19,0,0-.51,1.17,5.06,1.17H186.93c5.57,0,5.06-1.17,5.06-1.17Z" style="fill:url(#linear-gradient-2);"/><polyline points="138.87 190.19 138.87 178 85.13 178 85.13 190.19" style="fill:url(#linear-gradient-3); mix-blend-mode:multiply;"/></g><rect width="224" height="178" rx="5" ry="5" style="fill:url(#linear-gradient-4);"/><rect x="2" y="2" width="220" height="174" rx="6" ry="6" style="fill:url(#linear-gradient-5);"/><rect x="4" y="4" width="216" height="170" rx="8" ry="8" style="fill:url(#linear-gradient-6);"/></g><g id="Design"><g><rect x="111.22" y="24" width="50.12" height="15.66" style="fill:#a0642f;"/><path d="M159.86,47.49h-47.17c-1.36,21.19-7.09,39.96-17.14,56.37,16.03,11.82,25.44,29.82,32.37,50.13h4.47v-54.61c-4.52-1.63-7.76-5.99-7.76-11.14,0-6.53,5.21-11.83,11.64-11.83s11.64,5.3,11.64,11.83c0,5.15-3.24,9.52-7.76,11.14v54.61h4.47c6.93-20.31,16.34-38.31,32.37-50.13-10.05-16.41-15.78-35.19-17.14-56.37Z" style="fill:url(#Silver);"/><path d="M47,78.82v28.19h28.19v-28.19h-28.19Zm18.33,18.33h-8.46v-8.46h8.46v8.46Z" style="fill:#12491d;"/><path d="M92.42,50.63c-5.19,0-9.4,4.21-9.4,9.4s4.21,9.4,9.4,9.4,9.4-4.21,9.4-9.4-4.21-9.4-9.4-9.4Zm0,13.43c-2.22,0-4.03-1.8-4.03-4.03s1.8-4.03,4.03-4.03,4.03,1.8,4.03,4.03-1.8,4.03-4.03,4.03Z" style="fill:#12491d;"/><path d="M72.47,84.2l-4.43-2.56c5.47-9.46,11.52-15.62,18.52-18.84l2.14,4.65c-5.92,2.72-11.38,8.36-16.23,16.75Z" style="fill:#12491d;"/><path d="M120.08,150.79c-30.61,0-61.8-23.79-61.8-47.15h5.12c0,20.43,29.14,42.03,56.69,42.03v5.12Z" style="fill:#12491d;"/></g></g></g></svg>