<?xml version="1.0" encoding="UTF-8"?><svg xmlns="http://www.w3.org/2000/svg" xmlns:xlink="http://www.w3.org/1999/xlink" viewBox="0 0 224 224"><defs><linearGradient id="linear-gradient" x1="112.01" y1="227.52" x2="112.01" y2="214.49" gradientUnits="userSpaceOnUse"><stop offset="0" stop-color="#333"/><stop offset=".3" stop-color="#424242"/><stop offset=".34" stop-color="#575757"/><stop offset=".46" stop-color="#979797"/><stop offset=".57" stop-color="#c5c5c5"/><stop offset=".64" stop-color="#e2e2e2"/><stop offset=".69" stop-color="#ededed"/><stop offset=".83" stop-color="#ebebeb"/><stop offset=".89" stop-color="#e4e4e4"/><stop offset=".92" stop-color="#d8d8d8"/><stop offset=".95" stop-color="#c7c7c7"/><stop offset=".98" stop-color="#b1b1b1"/><stop offset="1" stop-color="#979797"/><stop offset="1" stop-color="#969696"/></linearGradient><linearGradient id="linear-gradient-2" x1="112" y1="195.09" x2="112" y2="225.2" gradientUnits="userSpaceOnUse"><stop offset="0" stop-color="#999"/><stop offset=".06" stop-color="#bdbdbd"/><stop offset=".14" stop-color="#ececec"/><stop offset=".17" stop-color="#fff"/><stop offset=".21" stop-color="#f9f9f9"/><stop offset=".26" stop-color="#e9e9e9"/><stop offset=".31" stop-color="#d0d0d0"/><stop offset=".37" stop-color="#acacac"/><stop offset=".42" stop-color="#868686"/><stop offset=".46" stop-color="#7c7c7c"/><stop offset=".54" stop-color="#717171"/><stop offset=".62" stop-color="#6e6e6e"/><stop offset=".87" stop-color="#ededed"/><stop offset=".93" stop-color="#ebebeb"/><stop offset=".95" stop-color="#e4e4e4"/><stop offset=".97" stop-color="#d8d8d8"/><stop offset=".98" stop-color="#c7c7c7"/><stop offset=".99" stop-color="#b1b1b1"/><stop offset="1" stop-color="#979797"/><stop offset="1" stop-color="#969696"/></linearGradient><linearGradient id="linear-gradient-3" x1="112" y1="187.81" x2="112" y2="190.18" gradientUnits="userSpaceOnUse"><stop offset="0" stop-color="gray"/><stop offset=".09" stop-color="#969696"/><stop offset=".21" stop-color="#adadad"/><stop offset=".33" stop-color="#bebebe"/><stop offset=".47" stop-color="#c8c8c8"/><stop offset=".65" stop-color="#ccc"/><stop offset=".74" stop-color="#d1d1d1"/><stop offset=".85" stop-color="#e1e1e1"/><stop offset=".98" stop-color="#fafafa"/><stop offset="1" stop-color="#fff"/></linearGradient><linearGradient id="linear-gradient-4" x1="112" y1="-104.22" x2="112" y2="305.81" gradientUnits="userSpaceOnUse"><stop offset="0" stop-color="#333"/><stop offset=".05" stop-color="#3c3c3c"/><stop offset=".14" stop-color="#565656"/><stop offset=".24" stop-color="#818181"/><stop offset=".37" stop-color="#bcbcbc"/><stop offset=".5" stop-color="#fff"/><stop offset=".57" stop-color="#c8c8c8"/><stop offset=".66" stop-color="#8c8c8c"/><stop offset=".74" stop-color="#5a5a5a"/><stop offset=".82" stop-color="#333"/><stop offset=".89" stop-color="#171717"/><stop offset=".95" stop-color="#060606"/><stop offset="1" stop-color="#000"/></linearGradient><linearGradient id="linear-gradient-5" y1="-126.35" y2="274.47" xlink:href="#linear-gradient-4"/><linearGradient id="linear-gradient-6" x1="4" y1="89" x2="220" y2="89" gradientUnits="userSpaceOnUse"><stop offset="0" stop-color="#333"/><stop offset=".29" stop-color="#292929"/><stop offset=".77" stop-color="#0f0f0f"/><stop offset="1" stop-color="#000"/></linearGradient><linearGradient id="linear-gradient-7" x1="128.94" y1="41.55" x2="166.51" y2="79.11" gradientUnits="userSpaceOnUse"><stop offset="0" stop-color="#dddad6"/><stop offset="0" stop-color="#d5cfcb"/><stop offset=".06" stop-color="#c6c0be"/><stop offset=".17" stop-color="#9f9a9c"/><stop offset=".26" stop-color="#78747b"/><stop offset=".52" stop-color="#eff0f0"/><stop offset=".58" stop-color="#e0e1e1"/><stop offset=".69" stop-color="#bbbabc"/><stop offset=".83" stop-color="#7f7b80"/><stop offset=".88" stop-color="#6c686d"/><stop offset="1" stop-color="#c6c8c9"/><stop offset="1" stop-color="#96989b"/></linearGradient></defs><g style="isolation:isolate;"><g id="Layer_1"><g><path d="M32.01,219.72v3.03c0,.92,.99,1.25,1.9,1.25H190.1c1.41,0,1.9-.57,1.9-1.25v-3.03H32.01Z" style="fill:url(#linear-gradient);"/><path d="M191.99,219.72c.16-1.82-3.31-3.19-3.31-3.19,0,0-31.84-6.83-40.67-10.47-8.83-3.64-9.14-14.11-9.14-14.11v-13.94h-53.74v13.94s-.31,10.47-9.14,14.11c-8.83,3.64-40.67,10.47-40.67,10.47,0,0-3.47,1.37-3.31,3.19,0,0-.51,1.17,5.06,1.17H186.93c5.57,0,5.06-1.17,5.06-1.17Z" style="fill:url(#linear-gradient-2);"/><polyline points="138.87 190.19 138.87 178 85.13 178 85.13 190.19" style="fill:url(#linear-gradient-3); mix-blend-mode:multiply;"/></g><rect width="224" height="178" rx="5" ry="5" style="fill:url(#linear-gradient-4);"/><rect x="2" y="2" width="220" height="174" rx="6" ry="6" style="fill:url(#linear-gradient-5);"/><rect x="4" y="4" width="216" height="170" rx="8" ry="8" style="fill:url(#linear-gradient-6);"/></g><g id="Revise"><g><polygon points="52.79 150.77 52.79 62.01 83.02 31.16 140.07 31.16 140.07 150.77 52.79 150.77" style="fill:#fff;"/><polygon points="57.64 69.95 89.97 69.95 89.97 37.63 57.64 69.95" style="fill:#666;"/><polygon points="135.99 120.59 135.99 145.17 56.88 145.17 56.88 73.31 93.88 36.75 124.01 36.75 132.94 27.93 81.12 27.93 47.94 60.71 47.94 154 144.92 154 144.92 111.76 135.99 120.59" style="fill:#666;"/><path d="M162.49,45.56c-10.37-10.37-23.59-13.98-29.51-8.05-1.43,1.43-6.64,6.64-8.07,8.07-5.93,5.93-2.32,19.14,8.05,29.51,10.37,10.37,23.59,13.98,29.51,8.05,1.43-1.43,6.64-6.64,8.07-8.07,5.93-5.93,2.32-19.14-8.05-29.51Z" style="fill:url(#linear-gradient-7);"/><path d="M139.29,68.77c-7.35-7.35-12.28-15.72-14.28-23.28l-36.88,36.88-8.72,46.9,46.28-9.34,36.88-36.88c-7.56-2-15.93-6.93-23.28-14.28Z" style="fill:#7c411e;"/><path d="M139.29,68.77c-7.35-7.35-11.98-16.71-11.86-25.7l-39.3,39.3-8.72,46.9,46.28-9.34,39.3-39.3c-8.08,.2-18.35-4.5-25.7-11.86Z" style="fill:#a0642f;"/><path d="M101.59,106.46c-3.55-3.55-6.28-7.43-8.14-11.24l-4.53,24.38,24.17-4.88c-3.89-1.85-7.87-4.63-11.5-8.26Z" style="fill:#beac83;"/><path d="M93.25,114.81c-.96-.96-1.94-1.83-2.94-2.67l-1.39,7.47,7.32-1.48c-.93-1.13-1.92-2.24-2.99-3.32Z" style="fill:#666;"/><path d="M173.15,34.9c-10.37-10.37-23.59-13.98-29.51-8.05-1.43,1.43-6.64,6.64-8.07,8.07-5.93,5.93-2.32,19.14,8.05,29.51,10.37,10.37,23.59,13.98,29.51,8.05,1.43-1.43,6.64-6.64,8.07-8.07,5.93-5.93,2.32-19.14-8.05-29.51Z" style="fill:#fe330a;"/></g></g></g></svg>